<svg xmlns="http://www.w3.org/2000/svg" xmlns:xlink="http://www.w3.org/1999/xlink" width="48" height="48" version="1.1"><defs id="defs7"><linearGradient id="linearGradient4143"><stop id="stop4145" offset="0" stop-color="#9c0008"/><stop id="stop4151" offset=".417" stop-color="#e35e00"/><stop id="stop4169" offset=".595" stop-color="#797d00"/><stop id="stop4157" offset=".757" stop-color="#00a535"/><stop id="stop4153" offset=".866" stop-color="#008ec8"/><stop id="stop4147" offset="1" stop-color="#8500db"/></linearGradient><radialGradient id="radialGradient4171" cx="0" cy="0" r="24" fx="0" fy="0" gradientTransform="matrix(-0.00525332,1.8434421,-2.0546808,-0.0058553,0,4)" gradientUnits="userSpaceOnUse" xlink:href="#linearGradient4143"/></defs><g stroke="none"><rect id="rect4159" width="48" height="40" x="0" y="4" fill="url(#radialGradient4171)" fill-rule="evenodd" stroke-linecap="round" stroke-width="2.145" rx="3" ry="3"/><path id="path2987" fill="#fff" d="m 6.0236,8.0971 .0003,2.2049 2.9302,.2233 .4745,.6698 -4.7167,25.1185 -.7256,.6979 -2.9863,.2232 0,2.2884 13.0617,.0002 .0004,-2.2882 -2.903,-.1958 -.5024,-.7257 1.9257,-10.5218 2.9584,0 4.2422,8.931 c 1.73387,3.56142 2.95022,5.08832 6.69828,5.13562 1.07772,0.01399 1.51127,0.093 4.41875,0 10.0277,-8.37214 15.1465,-14.7538 15.9552,-17.6391 0.489802,-1.74751 -0.28784,-2.81931 -1.95414,-2.81931 -0.81283,0 -1.74339,0.342303 -2.79048,1.0332 l -.7536,6.0004 c -2.05232,2.68221 -4.78822,5.60383 -8.12167,8.65194 l 2.2048,-11.5268 c 0.45754,-2.35731 0.60838,-3.61501 -0.921193,-4.10282 l -6.8376,1.5074 -.3624,1.2836 3.1533,.5027 c 0.219216,0.812706 -0.02361,2.57961 -0.502372,5.30272 l -1.535,8.4564 c -0.02413,0.08701 -0.0394,0.182402 -0.05583,0.279102 -0.99534,-0.534801 -1.62279,-1.48711 -2.3444,-2.93031 l -6.0005,-12.0013 10.9684,-11.1079 3.7399,-.3628 -.0005,-2.2887 -11.7216,.0001 .0005,2.2889 2.9021,.223 .2791,.7536 -11.75,12.1127 h -1.39548 l 2.3165,-12.2802 .614,-.6698 3.0979,-.2232 -.0003,-2.2051 z" font-family="Bitstream Charter" font-size="40" font-style="italic" font-weight="bold" letter-spacing="0" word-spacing="0" style="text-align:start;line-height:125%"/></g></svg>